# xmcd CD database file
#
# Track frame offsets:
#	150
#	17937
#	41368
#	57590
#	111690
#	129751
#	147540
#	165972
#	190083
#	208967
#	232134
#	265299
#	288054
#	319992
#	336844
#
# Disc length: 4680 seconds
#
# Revision: 3
# Processed by: cddbd v1.5.1PL0 Copyright (c) Steve Scherf et al.
# Submitted via: CDex 1.40Release
#
DISCID=e912460f
DTITLE=Enigma - Gold
DYEAR=2000
DGENRE=New Age
TTITLE0=Gravity Of Love
TTITLE1=Beyond The Invisible
TTITLE2=Carly's Song
TTITLE3=Sadness
TTITLE4=Screen Behind The Mirror
TTITLE5=Mea Culpa Part II
TTITLE6=Return To Innocence
TTITLE7=Why
TTITLE8=Between Mind And Heart
TTITLE9=Out From The Deep
TTITLE10=The Rivers Of Belief
TTITLE11=The Child In Us
TTITLE12=Eyes Of Truth
TTITLE13=The Roundabout
TTITLE14=Carly's Loneliness
EXTD=YEAR: 2000 ID3G: 10
EXTT0=
EXTT1=
EXTT2=
EXTT3=
EXTT4=
EXTT5=
EXTT6=
EXTT7=
EXTT8=
EXTT9=
EXTT10=
EXTT11=
EXTT12=
EXTT13=
EXTT14=
PLAYORDER=
